<svg id="Layer_1" data-name="Layer 1" xmlns="http://www.w3.org/2000/svg" viewBox="0 0 318 55"><defs><style>.cls-1{fill:#414b59;}.cls-2{fill:#1c97c3;}.cls-3{fill:#2462aa;}.cls-4{fill:#095aa5;}.cls-5{fill:#0767a3;}.cls-6{fill:#169cab;}</style></defs><title>ba-logo</title><path class="cls-1" d="M60.27,18.8l8,0c4,0,6.82,2,6.83,5.65a5.13,5.13,0,0,1-2.65,4.72v.06A5.15,5.15,0,0,1,76,34.36c0,4.4-3.48,6.39-7.57,6.4l-8.13,0Zm8.09,9A2.59,2.59,0,0,0,71,24.93a2.51,2.51,0,0,0-2.73-2.72H64.34v5.55Zm.4,9.57a3,3,0,0,0,3.09-3.2A3,3,0,0,0,68.74,31l-4.38,0,0,6.35Z"/><rect class="cls-1" x="78.33" y="24.93" width="3.9" height="15.8" transform="translate(-0.1 0.24) rotate(-0.17)"/><rect class="cls-1" x="85.52" y="18.71" width="3.93" height="21.99" transform="translate(-0.09 0.26) rotate(-0.17)"/><path class="cls-1" d="M107.38,24.73l.05,15c0,5.42-4.19,7.47-8.31,7.49a12.69,12.69,0,0,1-5.61-1.35l1.2-3.1a10.13,10.13,0,0,0,4.37,1c2.38,0,4.46-1,4.45-3.89v-.74c0-.37,0-.84,0-.84h-.06a4.86,4.86,0,0,1-4.39,2.06c-4.52,0-7.1-3.63-7.12-8s2.43-7.87,7-7.89c3.65,0,4.87,2.22,4.87,2.22h.06s0-1.76,0-2Zm-3.78,7.66c0-3.6-1.81-4.55-3.95-4.55-2.39,0-3.68,1.75-3.67,4.42s1.41,4.79,4,4.78c1.89,0,3.68-1.09,3.67-4.65"/><path class="cls-1" d="M117.83,24.45c4.52,0,7,3.29,7,7.47,0,.47-.09,1.46-.09,1.46l-10.9,0a4.54,4.54,0,0,0,4.75,4.23A7.22,7.22,0,0,0,123,35.86l1.65,2.72A9.65,9.65,0,0,1,118.34,41a8.1,8.1,0,0,1-8.51-8.25c0-4.86,3.26-8.28,8-8.29m3,6.21a3.07,3.07,0,0,0-3-3.18,3.78,3.78,0,0,0-3.86,3.2Z"/><path class="cls-1" d="M142.14,40.54,140,34.91l-7.43,0-1.92,5.65h-4.58l8.06-22h4.25l8,22Zm-3.07-9-2.79-8.52h-.06l-2.73,8.54Z"/><path class="cls-1" d="M158.58,40.49c0-.34,0-1.66,0-1.66h-.06s-1.3,2-4.92,2.05c-4.27,0-7-3.36-7.06-8.25s3-8.28,7.16-8.29c3.44,0,4.56,1.72,4.56,1.72V18.5h3.94l.06,22Zm-.18-7.93c0-2.45-1.29-4.86-3.92-4.85-2.17,0-4,1.78-3.95,4.91s1.59,5,3.92,4.94c2,0,4-1.5,4-5"/><path class="cls-1" d="M201.81,40.36l0-9.15c0-1.8-.58-3.26-2.57-3.26-2.8,0-3.63,2.39-3.62,4.34,0,.65,0,8.09,0,8.09h-3.94l0-9.58c0-1.7-.63-3-2.68-3-2.25,0-3.52,1.58-3.51,3.85v1.8l0,6.94h-3.91l0-15.56,3.74,0c0,.34,0,1.55,0,1.55a6.14,6.14,0,0,1,5.17-2.16,4.39,4.39,0,0,1,4.51,3c1.05-2.12,3-2.87,5.55-2.88,2.33,0,5.18,1.91,5.19,6.06l0,9.92Z"/><path class="cls-1" d="M82.79,20.55A2.54,2.54,0,1,1,80.24,18a2.55,2.55,0,0,1,2.55,2.53"/><path class="cls-1" d="M178.48,40.43l0-9.88c0-3.53-1.57-6.28-6.83-6.27a10.74,10.74,0,0,0-5.71,1.87l1.69,2.69a7.05,7.05,0,0,1,4-1.52c2,0,2.91.56,2.92,2.82v.12H174c-2.57,0-9.38.7-9.37,5.66,0,3.16,2.59,4.92,5.41,4.91,3.56,0,4.76-2.14,4.76-2.14v1.75ZM174.59,34A3.55,3.55,0,0,1,171,37.76a2.11,2.11,0,0,1-2.39-2c0-2.2,3.24-2.76,5.29-2.76h.68Z"/><polygon class="cls-2" points="215.84 21.44 209.26 21.44 209.26 19.07 225.28 19.07 225.28 21.44 218.67 21.44 218.67 40.7 215.84 40.7 215.84 21.44"/><path class="cls-2" d="M225.28,33.45c.07,3.82,2.51,5.39,5.33,5.39a10.21,10.21,0,0,0,4.3-.8l.48,2a12.53,12.53,0,0,1-5.16,1c-4.79,0-7.65-3.14-7.65-7.83s2.77-8.38,7.29-8.38c5.07,0,6.42,4.47,6.42,7.32a11.45,11.45,0,0,1-.09,1.32Zm8.28-2c0-1.8-.73-4.59-3.91-4.59-2.86,0-4.11,2.63-4.34,4.59Z"/><path class="cls-2" d="M241,32.29H241c.39-.54.94-1.22,1.38-1.76L247,25.17h3.41l-6,6.38,6.84,9.15h-3.43l-5.37-7.44L241,34.86V40.7h-2.79V17.91H241Z"/><path class="cls-2" d="M252.18,29.37c0-1.6,0-2.92-.12-4.2h2.5l.16,2.56h.06a5.73,5.73,0,0,1,5.14-2.92c2.15,0,5.49,1.29,5.49,6.62V40.7h-2.83v-9c0-2.51-.93-4.59-3.59-4.59a4.13,4.13,0,0,0-4,4.2V40.7h-2.83Z"/><path class="cls-2" d="M282.46,32.81c0,5.74-4,8.25-7.74,8.25-4.21,0-7.45-3.08-7.45-8,0-5.2,3.41-8.25,7.71-8.25,4.46,0,7.48,3.25,7.48,8M270.13,33c0,3.4,2,6,4.72,6s4.72-2.54,4.72-6c0-2.63-1.32-6-4.66-6s-4.78,3.08-4.78,6"/><rect class="cls-2" x="284.42" y="17.91" width="2.82" height="22.79"/><path class="cls-2" d="M304.45,32.81c0,5.74-4,8.25-7.74,8.25-4.2,0-7.45-3.08-7.45-8,0-5.2,3.41-8.25,7.71-8.25,4.46,0,7.48,3.25,7.48,8M292.12,33c0,3.4,2,6,4.72,6s4.72-2.54,4.72-6c0-2.63-1.32-6-4.66-6s-4.78,3.08-4.78,6"/><path class="cls-2" d="M302.62,45.2A4.58,4.58,0,0,0,305.7,44c.77-.9,1.06-2.12,1.06-5.84v-13h2.82V39.26c0,3-.48,5-1.86,6.39a7.15,7.15,0,0,1-4.81,1.76Zm7.29-24.4a1.66,1.66,0,0,1-1.77,1.73,1.68,1.68,0,0,1-1.73-1.73A1.72,1.72,0,0,1,308.2,19a1.67,1.67,0,0,1,1.71,1.76"/><path class="cls-2" d="M315.75,20.8a1.75,1.75,0,0,1-3.5,0A1.72,1.72,0,0,1,314,19a1.68,1.68,0,0,1,1.73,1.76m-3.15,4.37h2.83V40.7H312.6Z"/><path class="cls-1" d="M27.51,52.88a25.26,25.26,0,0,1,0-50.52h0a25.26,25.26,0,0,1,0,50.52m0-46.82a21.56,21.56,0,1,0,15.24,6.32A21.58,21.58,0,0,0,27.51,6.06"/><path class="cls-1" d="M27.5,31.15a3.76,3.76,0,1,1,3.76-3.75,3.75,3.75,0,0,1-3.76,3.75"/><path class="cls-3" d="M37.7,36.91a3.76,3.76,0,0,1,0-7.52,3.78,3.78,0,0,1,3.63,2.79,3.76,3.76,0,0,1-3.64,4.73"/><path class="cls-2" d="M37.92,25.14a3.76,3.76,0,0,1-3.25-1.88A3.75,3.75,0,0,1,36,18.13a3.76,3.76,0,1,1,1.88,7"/><path class="cls-4" d="M27.5,19.13a3.76,3.76,0,1,1,3.76-3.76,3.76,3.76,0,0,1-3.76,3.76Z"/><path class="cls-5" d="M17.09,25.14a3.76,3.76,0,1,1,3.63-4.73,3.69,3.69,0,0,1-.38,2.85,3.76,3.76,0,0,1-3.25,1.88"/><path class="cls-6" d="M17.14,37.12a3.75,3.75,0,0,1-1.88-7,3.72,3.72,0,0,1,1.87-.5,3.78,3.78,0,0,1,3.26,1.88,3.75,3.75,0,0,1-3.25,5.63"/><path class="cls-1" d="M24.2,50.66V38a3.34,3.34,0,0,1,6.67,0V50.66"/></svg>